<mxfile host="65bd71144e">
    <diagram name="Page-1" id="Z0Z9ZaM-AJmBViPzEow9">
        <mxGraphModel dx="2078" dy="1018" grid="1" gridSize="10" guides="1" tooltips="1" connect="1" arrows="1" fold="1" page="0" pageScale="1" pageWidth="1169" pageHeight="827" math="0" shadow="0">
            <root>
                <mxCell id="0"/>
                <mxCell id="1" parent="0"/>
                <mxCell id="51" style="edgeStyle=orthogonalEdgeStyle;rounded=0;html=1;startArrow=none;startFill=0;endArrow=open;endFill=0;entryX=0.499;entryY=1.058;entryDx=0;entryDy=0;entryPerimeter=0;fillColor=#d5e8d4;strokeColor=#82b366;" parent="1" source="02XY2JCdMLhreh1r9P0p-1" target="02XY2JCdMLhreh1r9P0p-8" edge="1">
                    <mxGeometry relative="1" as="geometry">
                        <mxPoint x="2115" y="630" as="targetPoint"/>
                        <Array as="points">
                            <mxPoint x="2115" y="670"/>
                        </Array>
                    </mxGeometry>
                </mxCell>
                <mxCell id="02XY2JCdMLhreh1r9P0p-1" value="DomainStateStore" style="swimlane;fontStyle=1;align=center;verticalAlign=top;childLayout=stackLayout;horizontal=1;startSize=26;horizontalStack=0;resizeParent=1;resizeParentMax=0;resizeLast=0;collapsible=1;marginBottom=0;whiteSpace=wrap;html=1;fillColor=#dae8fc;strokeColor=#6c8ebf;" parent="1" vertex="1">
                    <mxGeometry x="2020" y="720" width="190" height="138" as="geometry">
                        <mxRectangle x="770" y="210" width="90" height="30" as="alternateBounds"/>
                    </mxGeometry>
                </mxCell>
                <mxCell id="02XY2JCdMLhreh1r9P0p-2" value="- data: StateStream&amp;lt;D&amp;gt;" style="text;strokeColor=none;fillColor=none;align=left;verticalAlign=top;spacingLeft=4;spacingRight=4;overflow=hidden;rotatable=0;points=[[0,0.5],[1,0.5]];portConstraint=eastwest;whiteSpace=wrap;html=1;" parent="02XY2JCdMLhreh1r9P0p-1" vertex="1">
                    <mxGeometry y="26" width="190" height="26" as="geometry"/>
                </mxCell>
                <mxCell id="02XY2JCdMLhreh1r9P0p-3" value="" style="line;strokeWidth=1;fillColor=none;align=left;verticalAlign=middle;spacingTop=-1;spacingLeft=3;spacingRight=3;rotatable=0;labelPosition=right;points=[];portConstraint=eastwest;strokeColor=inherit;" parent="02XY2JCdMLhreh1r9P0p-1" vertex="1">
                    <mxGeometry y="52" width="190" height="8" as="geometry"/>
                </mxCell>
                <mxCell id="lV4OFVbkJ7nxnQ59gAoD-3" value="+ getState(): D" style="text;strokeColor=none;fillColor=none;align=left;verticalAlign=top;spacingLeft=4;spacingRight=4;overflow=hidden;rotatable=0;points=[[0,0.5],[1,0.5]];portConstraint=eastwest;whiteSpace=wrap;html=1;" parent="02XY2JCdMLhreh1r9P0p-1" vertex="1">
                    <mxGeometry y="60" width="190" height="26" as="geometry"/>
                </mxCell>
                <mxCell id="lV4OFVbkJ7nxnQ59gAoD-54" value="+ getStateStream(): Stream&amp;lt;D&amp;gt;" style="text;strokeColor=none;fillColor=none;align=left;verticalAlign=top;spacingLeft=4;spacingRight=4;overflow=hidden;rotatable=0;points=[[0,0.5],[1,0.5]];portConstraint=eastwest;whiteSpace=wrap;html=1;" parent="02XY2JCdMLhreh1r9P0p-1" vertex="1">
                    <mxGeometry y="86" width="190" height="26" as="geometry"/>
                </mxCell>
                <mxCell id="02XY2JCdMLhreh1r9P0p-4" value="+ update(UpdateCommand&amp;lt;D&amp;gt;)" style="text;strokeColor=none;fillColor=none;align=left;verticalAlign=top;spacingLeft=4;spacingRight=4;overflow=hidden;rotatable=0;points=[[0,0.5],[1,0.5]];portConstraint=eastwest;whiteSpace=wrap;html=1;" parent="02XY2JCdMLhreh1r9P0p-1" vertex="1">
                    <mxGeometry y="112" width="190" height="26" as="geometry"/>
                </mxCell>
                <mxCell id="56" style="edgeStyle=orthogonalEdgeStyle;rounded=0;html=1;startArrow=open;startFill=0;endArrow=none;endFill=0;dashed=1;entryX=0.5;entryY=1;entryDx=0;entryDy=0;fillColor=#d5e8d4;strokeColor=#82b366;" parent="1" source="02XY2JCdMLhreh1r9P0p-5" target="lV4OFVbkJ7nxnQ59gAoD-37" edge="1">
                    <mxGeometry relative="1" as="geometry">
                        <mxPoint x="2115" y="460" as="targetPoint"/>
                    </mxGeometry>
                </mxCell>
                <mxCell id="02XY2JCdMLhreh1r9P0p-5" value="&amp;lt;&amp;lt;interface&amp;gt;&amp;gt;&lt;div&gt;UpdateCommand&amp;lt;S&amp;gt;&lt;/div&gt;" style="swimlane;fontStyle=1;align=center;verticalAlign=top;childLayout=stackLayout;horizontal=1;startSize=40;horizontalStack=0;resizeParent=1;resizeParentMax=0;resizeLast=0;collapsible=1;marginBottom=0;whiteSpace=wrap;html=1;fillColor=#d5e8d4;strokeColor=#82b366;" parent="1" vertex="1">
                    <mxGeometry x="2020" y="580" width="190" height="66" as="geometry"/>
                </mxCell>
                <mxCell id="02XY2JCdMLhreh1r9P0p-8" value="+ update(S): S" style="text;strokeColor=none;fillColor=none;align=left;verticalAlign=top;spacingLeft=4;spacingRight=4;overflow=hidden;rotatable=0;points=[[0,0.5],[1,0.5]];portConstraint=eastwest;whiteSpace=wrap;html=1;" parent="02XY2JCdMLhreh1r9P0p-5" vertex="1">
                    <mxGeometry y="40" width="190" height="26" as="geometry"/>
                </mxCell>
                <mxCell id="50" style="edgeStyle=orthogonalEdgeStyle;rounded=0;html=1;entryX=0;entryY=0.25;entryDx=0;entryDy=0;startArrow=none;startFill=0;endArrow=open;endFill=0;exitX=1;exitY=0.5;exitDx=0;exitDy=0;fillColor=#d5e8d4;strokeColor=#82b366;" parent="1" source="02XY2JCdMLhreh1r9P0p-23" target="lV4OFVbkJ7nxnQ59gAoD-45" edge="1">
                    <mxGeometry relative="1" as="geometry">
                        <Array as="points">
                            <mxPoint x="680" y="509"/>
                            <mxPoint x="680" y="223"/>
                        </Array>
                        <mxPoint x="630" y="510" as="sourcePoint"/>
                    </mxGeometry>
                </mxCell>
                <mxCell id="143" style="edgeStyle=none;html=1;startArrow=none;startFill=0;endArrow=block;endFill=0;dashed=1;fillColor=#d5e8d4;strokeColor=#82b366;" parent="1" source="02XY2JCdMLhreh1r9P0p-22" edge="1">
                    <mxGeometry relative="1" as="geometry">
                        <mxPoint x="530" y="400" as="targetPoint"/>
                    </mxGeometry>
                </mxCell>
                <mxCell id="02XY2JCdMLhreh1r9P0p-22" value="ViewModelImpl" style="swimlane;fontStyle=1;align=center;verticalAlign=top;childLayout=stackLayout;horizontal=1;startSize=26;horizontalStack=0;resizeParent=1;resizeParentMax=0;resizeLast=0;collapsible=1;marginBottom=0;whiteSpace=wrap;html=1;fillColor=#ffe6cc;strokeColor=#d79b00;" parent="1" vertex="1">
                    <mxGeometry x="430" y="470" width="200" height="244" as="geometry">
                        <mxRectangle x="450" y="360" width="120" height="30" as="alternateBounds"/>
                    </mxGeometry>
                </mxCell>
                <mxCell id="02XY2JCdMLhreh1r9P0p-23" value="- viewState: StateStream&amp;lt;V&amp;gt;" style="text;strokeColor=none;fillColor=none;align=left;verticalAlign=top;spacingLeft=4;spacingRight=4;overflow=hidden;rotatable=0;points=[[0,0.5],[1,0.5]];portConstraint=eastwest;whiteSpace=wrap;html=1;" parent="02XY2JCdMLhreh1r9P0p-22" vertex="1">
                    <mxGeometry y="26" width="200" height="26" as="geometry"/>
                </mxCell>
                <mxCell id="02XY2JCdMLhreh1r9P0p-50" value="- domainStore: StateStore&amp;lt;D&amp;gt;" style="text;strokeColor=none;fillColor=none;align=left;verticalAlign=top;spacingLeft=4;spacingRight=4;overflow=hidden;rotatable=0;points=[[0,0.5],[1,0.5]];portConstraint=eastwest;whiteSpace=wrap;html=1;" parent="02XY2JCdMLhreh1r9P0p-22" vertex="1">
                    <mxGeometry y="52" width="200" height="28" as="geometry"/>
                </mxCell>
                <mxCell id="AV7eaYbvX1PnVWqEoYlQ-11" value="- navigator: StackNavigator" style="text;strokeColor=none;fillColor=none;align=left;verticalAlign=top;spacingLeft=4;spacingRight=4;overflow=hidden;rotatable=0;points=[[0,0.5],[1,0.5]];portConstraint=eastwest;whiteSpace=wrap;html=1;" parent="02XY2JCdMLhreh1r9P0p-22" vertex="1">
                    <mxGeometry y="80" width="200" height="26" as="geometry"/>
                </mxCell>
                <mxCell id="02XY2JCdMLhreh1r9P0p-49" value="- useCase: UseCase&amp;lt;U&amp;gt;" style="text;strokeColor=none;fillColor=none;align=left;verticalAlign=top;spacingLeft=4;spacingRight=4;overflow=hidden;rotatable=0;points=[[0,0.5],[1,0.5]];portConstraint=eastwest;whiteSpace=wrap;html=1;" parent="02XY2JCdMLhreh1r9P0p-22" vertex="1">
                    <mxGeometry y="106" width="200" height="26" as="geometry"/>
                </mxCell>
                <mxCell id="149" value="- uiMapper: UIMapper&amp;lt;X, Y&amp;gt;" style="text;strokeColor=none;fillColor=none;align=left;verticalAlign=top;spacingLeft=4;spacingRight=4;overflow=hidden;rotatable=0;points=[[0,0.5],[1,0.5]];portConstraint=eastwest;whiteSpace=wrap;html=1;" parent="02XY2JCdMLhreh1r9P0p-22" vertex="1">
                    <mxGeometry y="132" width="200" height="26" as="geometry"/>
                </mxCell>
                <mxCell id="02XY2JCdMLhreh1r9P0p-24" value="" style="line;strokeWidth=1;fillColor=none;align=left;verticalAlign=middle;spacingTop=-1;spacingLeft=3;spacingRight=3;rotatable=0;labelPosition=right;points=[];portConstraint=eastwest;strokeColor=inherit;" parent="02XY2JCdMLhreh1r9P0p-22" vertex="1">
                    <mxGeometry y="158" width="200" height="8" as="geometry"/>
                </mxCell>
                <mxCell id="10" value="+ getState(): V" style="text;strokeColor=none;fillColor=none;align=left;verticalAlign=top;spacingLeft=4;spacingRight=4;overflow=hidden;rotatable=0;points=[[0,0.5],[1,0.5]];portConstraint=eastwest;whiteSpace=wrap;html=1;" parent="02XY2JCdMLhreh1r9P0p-22" vertex="1">
                    <mxGeometry y="166" width="200" height="26" as="geometry"/>
                </mxCell>
                <mxCell id="lV4OFVbkJ7nxnQ59gAoD-56" value="+ getStateStream(): Stream&amp;lt;V&amp;gt;" style="text;strokeColor=none;fillColor=none;align=left;verticalAlign=top;spacingLeft=4;spacingRight=4;overflow=hidden;rotatable=0;points=[[0,0.5],[1,0.5]];portConstraint=eastwest;whiteSpace=wrap;html=1;" parent="02XY2JCdMLhreh1r9P0p-22" vertex="1">
                    <mxGeometry y="192" width="200" height="26" as="geometry"/>
                </mxCell>
                <mxCell id="9" value="+ handleAction(A)" style="text;strokeColor=none;fillColor=none;align=left;verticalAlign=top;spacingLeft=4;spacingRight=4;overflow=hidden;rotatable=0;points=[[0,0.5],[1,0.5]];portConstraint=eastwest;whiteSpace=wrap;html=1;" parent="02XY2JCdMLhreh1r9P0p-22" vertex="1">
                    <mxGeometry y="218" width="200" height="26" as="geometry"/>
                </mxCell>
                <mxCell id="49" style="edgeStyle=orthogonalEdgeStyle;rounded=0;html=1;entryX=0.501;entryY=1.005;entryDx=0;entryDy=0;startArrow=none;startFill=0;endArrow=block;endFill=0;dashed=1;exitX=0.5;exitY=0;exitDx=0;exitDy=0;entryPerimeter=0;fillColor=#d5e8d4;strokeColor=#82b366;" parent="1" source="02XY2JCdMLhreh1r9P0p-26" target="lV4OFVbkJ7nxnQ59gAoD-34" edge="1">
                    <mxGeometry relative="1" as="geometry">
                        <Array as="points">
                            <mxPoint x="1445" y="346"/>
                        </Array>
                    </mxGeometry>
                </mxCell>
                <mxCell id="67" style="edgeStyle=orthogonalEdgeStyle;rounded=0;html=1;exitX=0.998;exitY=0.971;exitDx=0;exitDy=0;entryX=0;entryY=0.25;entryDx=0;entryDy=0;startArrow=none;startFill=0;endArrow=open;endFill=0;exitPerimeter=0;fillColor=#d5e8d4;strokeColor=#82b366;" parent="1" source="lV4OFVbkJ7nxnQ59gAoD-2" target="lV4OFVbkJ7nxnQ59gAoD-37" edge="1">
                    <mxGeometry relative="1" as="geometry">
                        <Array as="points">
                            <mxPoint x="1690" y="529"/>
                            <mxPoint x="1690" y="387"/>
                        </Array>
                    </mxGeometry>
                </mxCell>
                <mxCell id="02XY2JCdMLhreh1r9P0p-26" value="UseCaseImpl" style="swimlane;fontStyle=1;align=center;verticalAlign=top;childLayout=stackLayout;horizontal=1;startSize=26;horizontalStack=0;resizeParent=1;resizeParentMax=0;resizeLast=0;collapsible=1;marginBottom=0;whiteSpace=wrap;html=1;fillColor=#dae8fc;strokeColor=#6c8ebf;" parent="1" vertex="1">
                    <mxGeometry x="1350" y="470" width="190" height="222" as="geometry">
                        <mxRectangle x="770" y="360" width="110" height="30" as="alternateBounds"/>
                    </mxGeometry>
                </mxCell>
                <mxCell id="lV4OFVbkJ7nxnQ59gAoD-2" value="- domainStore: &lt;span style=&quot;white-space: pre;&quot;&gt;&#x9;&lt;/span&gt;MutableStateStore&amp;lt;D&amp;gt;" style="text;strokeColor=none;fillColor=none;align=left;verticalAlign=top;spacingLeft=4;spacingRight=4;overflow=hidden;rotatable=0;points=[[0,0.5],[1,0.5]];portConstraint=eastwest;whiteSpace=wrap;html=1;" parent="02XY2JCdMLhreh1r9P0p-26" vertex="1">
                    <mxGeometry y="26" width="190" height="34" as="geometry"/>
                </mxCell>
                <mxCell id="02XY2JCdMLhreh1r9P0p-27" value="- service: Service" style="text;strokeColor=none;fillColor=none;align=left;verticalAlign=top;spacingLeft=4;spacingRight=4;overflow=hidden;rotatable=0;points=[[0,0.5],[1,0.5]];portConstraint=eastwest;whiteSpace=wrap;html=1;" parent="02XY2JCdMLhreh1r9P0p-26" vertex="1">
                    <mxGeometry y="60" width="190" height="26" as="geometry"/>
                </mxCell>
                <mxCell id="145" value="- repository: Repostitory&amp;lt;R&amp;gt;" style="text;strokeColor=none;fillColor=none;align=left;verticalAlign=top;spacingLeft=4;spacingRight=4;overflow=hidden;rotatable=0;points=[[0,0.5],[1,0.5]];portConstraint=eastwest;whiteSpace=wrap;html=1;" parent="02XY2JCdMLhreh1r9P0p-26" vertex="1">
                    <mxGeometry y="86" width="190" height="24" as="geometry"/>
                </mxCell>
                <mxCell id="02XY2JCdMLhreh1r9P0p-51" value="..." style="text;strokeColor=none;fillColor=none;align=left;verticalAlign=top;spacingLeft=4;spacingRight=4;overflow=hidden;rotatable=0;points=[[0,0.5],[1,0.5]];portConstraint=eastwest;whiteSpace=wrap;html=1;" parent="02XY2JCdMLhreh1r9P0p-26" vertex="1">
                    <mxGeometry y="110" width="190" height="26" as="geometry"/>
                </mxCell>
                <mxCell id="02XY2JCdMLhreh1r9P0p-28" value="" style="line;strokeWidth=1;fillColor=none;align=left;verticalAlign=middle;spacingTop=-1;spacingLeft=3;spacingRight=3;rotatable=0;labelPosition=right;points=[];portConstraint=eastwest;strokeColor=inherit;" parent="02XY2JCdMLhreh1r9P0p-26" vertex="1">
                    <mxGeometry y="136" width="190" height="8" as="geometry"/>
                </mxCell>
                <mxCell id="02XY2JCdMLhreh1r9P0p-30" value="+ execute(U)" style="text;strokeColor=none;fillColor=none;align=left;verticalAlign=top;spacingLeft=4;spacingRight=4;overflow=hidden;rotatable=0;points=[[0,0.5],[1,0.5]];portConstraint=eastwest;whiteSpace=wrap;html=1;" parent="02XY2JCdMLhreh1r9P0p-26" vertex="1">
                    <mxGeometry y="144" width="190" height="26" as="geometry"/>
                </mxCell>
                <mxCell id="lV4OFVbkJ7nxnQ59gAoD-32" value="- makeDomainCommand():&lt;br&gt;&amp;nbsp;&amp;nbsp;&lt;span style=&quot;white-space: pre;&quot;&gt;&#x9;&lt;/span&gt;UpdateCommand&amp;lt;D&amp;gt;" style="text;strokeColor=none;fillColor=none;align=left;verticalAlign=top;spacingLeft=4;spacingRight=4;overflow=hidden;rotatable=0;points=[[0,0.5],[1,0.5]];portConstraint=eastwest;whiteSpace=wrap;html=1;" parent="02XY2JCdMLhreh1r9P0p-26" vertex="1">
                    <mxGeometry y="170" width="190" height="52" as="geometry"/>
                </mxCell>
                <mxCell id="02XY2JCdMLhreh1r9P0p-44" value="View" style="swimlane;fontStyle=1;align=center;verticalAlign=top;childLayout=stackLayout;horizontal=1;startSize=26;horizontalStack=0;resizeParent=1;resizeParentMax=0;resizeLast=0;collapsible=1;marginBottom=0;whiteSpace=wrap;html=1;fillColor=#ffe6cc;strokeColor=#d79b00;" parent="1" vertex="1">
                    <mxGeometry x="140" y="280" width="190" height="86" as="geometry">
                        <mxRectangle x="140" y="360" width="90" height="30" as="alternateBounds"/>
                    </mxGeometry>
                </mxCell>
                <mxCell id="02XY2JCdMLhreh1r9P0p-45" value="- viewModel: ViewModel&amp;lt;V, A&amp;gt;" style="text;strokeColor=none;fillColor=none;align=left;verticalAlign=top;spacingLeft=4;spacingRight=4;overflow=hidden;rotatable=0;points=[[0,0.5],[1,0.5]];portConstraint=eastwest;whiteSpace=wrap;html=1;" parent="02XY2JCdMLhreh1r9P0p-44" vertex="1">
                    <mxGeometry y="26" width="190" height="26" as="geometry"/>
                </mxCell>
                <mxCell id="02XY2JCdMLhreh1r9P0p-46" value="" style="line;strokeWidth=1;fillColor=none;align=left;verticalAlign=middle;spacingTop=-1;spacingLeft=3;spacingRight=3;rotatable=0;labelPosition=right;points=[];portConstraint=eastwest;strokeColor=inherit;" parent="02XY2JCdMLhreh1r9P0p-44" vertex="1">
                    <mxGeometry y="52" width="190" height="8" as="geometry"/>
                </mxCell>
                <mxCell id="02XY2JCdMLhreh1r9P0p-47" value="..." style="text;strokeColor=none;fillColor=none;align=left;verticalAlign=top;spacingLeft=4;spacingRight=4;overflow=hidden;rotatable=0;points=[[0,0.5],[1,0.5]];portConstraint=eastwest;whiteSpace=wrap;html=1;" parent="02XY2JCdMLhreh1r9P0p-44" vertex="1">
                    <mxGeometry y="60" width="190" height="26" as="geometry"/>
                </mxCell>
                <mxCell id="02XY2JCdMLhreh1r9P0p-48" style="edgeStyle=orthogonalEdgeStyle;rounded=0;orthogonalLoop=1;jettySize=auto;html=1;entryX=-0.004;entryY=0.179;entryDx=0;entryDy=0;endArrow=open;endFill=0;startArrow=none;startFill=0;entryPerimeter=0;exitX=1.002;exitY=0.243;exitDx=0;exitDy=0;exitPerimeter=0;fillColor=#d5e8d4;strokeColor=#82b366;" parent="1" source="02XY2JCdMLhreh1r9P0p-44" target="2" edge="1">
                    <mxGeometry relative="1" as="geometry"/>
                </mxCell>
                <mxCell id="lV4OFVbkJ7nxnQ59gAoD-4" value="" style="endArrow=none;dashed=1;html=1;dashPattern=1 3;strokeWidth=2;rounded=0;fillColor=#f5f5f5;strokeColor=#666666;" parent="1" edge="1">
                    <mxGeometry width="50" height="50" relative="1" as="geometry">
                        <mxPoint x="1270" y="1000" as="sourcePoint"/>
                        <mxPoint x="1270" y="130" as="targetPoint"/>
                    </mxGeometry>
                </mxCell>
                <mxCell id="lV4OFVbkJ7nxnQ59gAoD-5" value="Platform / Presentation" style="text;html=1;align=center;verticalAlign=middle;whiteSpace=wrap;rounded=0;fontSize=14;" parent="1" vertex="1">
                    <mxGeometry x="620" y="110" width="150" height="50" as="geometry"/>
                </mxCell>
                <mxCell id="lV4OFVbkJ7nxnQ59gAoD-6" value="Core / Use Cases" style="text;html=1;align=center;verticalAlign=middle;whiteSpace=wrap;rounded=0;fontSize=14;" parent="1" vertex="1">
                    <mxGeometry x="1380" y="110" width="140" height="50" as="geometry"/>
                </mxCell>
                <mxCell id="lV4OFVbkJ7nxnQ59gAoD-7" value="" style="endArrow=none;dashed=1;html=1;dashPattern=1 3;strokeWidth=2;rounded=0;fillColor=#f5f5f5;strokeColor=#666666;" parent="1" edge="1">
                    <mxGeometry width="50" height="50" relative="1" as="geometry">
                        <mxPoint x="2550" y="1000" as="sourcePoint"/>
                        <mxPoint x="2550" y="120" as="targetPoint"/>
                    </mxGeometry>
                </mxCell>
                <mxCell id="lV4OFVbkJ7nxnQ59gAoD-13" value="Platform / Data" style="text;html=1;align=center;verticalAlign=middle;whiteSpace=wrap;rounded=0;fontSize=14;" parent="1" vertex="1">
                    <mxGeometry x="2660" y="110" width="100" height="50" as="geometry"/>
                </mxCell>
                <mxCell id="lV4OFVbkJ7nxnQ59gAoD-20" value="ExternalResourceAdapter" style="swimlane;fontStyle=1;align=center;verticalAlign=top;childLayout=stackLayout;horizontal=1;startSize=26;horizontalStack=0;resizeParent=1;resizeParentMax=0;resizeLast=0;collapsible=1;marginBottom=0;whiteSpace=wrap;html=1;fillColor=#ffe6cc;strokeColor=#d79b00;" parent="1" vertex="1">
                    <mxGeometry x="2970" y="720" width="210" height="86" as="geometry"/>
                </mxCell>
                <mxCell id="lV4OFVbkJ7nxnQ59gAoD-21" value="..." style="text;strokeColor=none;fillColor=none;align=left;verticalAlign=top;spacingLeft=4;spacingRight=4;overflow=hidden;rotatable=0;points=[[0,0.5],[1,0.5]];portConstraint=eastwest;whiteSpace=wrap;html=1;" parent="lV4OFVbkJ7nxnQ59gAoD-20" vertex="1">
                    <mxGeometry y="26" width="210" height="26" as="geometry"/>
                </mxCell>
                <mxCell id="lV4OFVbkJ7nxnQ59gAoD-22" value="" style="line;strokeWidth=1;fillColor=none;align=left;verticalAlign=middle;spacingTop=-1;spacingLeft=3;spacingRight=3;rotatable=0;labelPosition=right;points=[];portConstraint=eastwest;strokeColor=inherit;" parent="lV4OFVbkJ7nxnQ59gAoD-20" vertex="1">
                    <mxGeometry y="52" width="210" height="8" as="geometry"/>
                </mxCell>
                <mxCell id="lV4OFVbkJ7nxnQ59gAoD-23" value="..." style="text;strokeColor=none;fillColor=none;align=left;verticalAlign=top;spacingLeft=4;spacingRight=4;overflow=hidden;rotatable=0;points=[[0,0.5],[1,0.5]];portConstraint=eastwest;whiteSpace=wrap;html=1;" parent="lV4OFVbkJ7nxnQ59gAoD-20" vertex="1">
                    <mxGeometry y="60" width="210" height="26" as="geometry"/>
                </mxCell>
                <mxCell id="lV4OFVbkJ7nxnQ59gAoD-33" value="&amp;lt;&amp;lt;interface&amp;gt;&amp;gt;&lt;div&gt;UseCase&amp;lt;U&amp;gt;&lt;/div&gt;" style="swimlane;fontStyle=1;align=center;verticalAlign=top;childLayout=stackLayout;horizontal=1;startSize=40;horizontalStack=0;resizeParent=1;resizeParentMax=0;resizeLast=0;collapsible=1;marginBottom=0;whiteSpace=wrap;html=1;fillColor=#d5e8d4;strokeColor=#82b366;" parent="1" vertex="1">
                    <mxGeometry x="1350" y="280" width="190" height="66" as="geometry"/>
                </mxCell>
                <mxCell id="lV4OFVbkJ7nxnQ59gAoD-34" value="+ execute(U)" style="text;strokeColor=none;fillColor=none;align=left;verticalAlign=top;spacingLeft=4;spacingRight=4;overflow=hidden;rotatable=0;points=[[0,0.5],[1,0.5]];portConstraint=eastwest;whiteSpace=wrap;html=1;" parent="lV4OFVbkJ7nxnQ59gAoD-33" vertex="1">
                    <mxGeometry y="40" width="190" height="26" as="geometry"/>
                </mxCell>
                <mxCell id="59" style="edgeStyle=orthogonalEdgeStyle;rounded=0;html=1;startArrow=none;startFill=0;endArrow=block;endFill=0;entryX=0.501;entryY=1.05;entryDx=0;entryDy=0;entryPerimeter=0;dashed=1;fillColor=#d5e8d4;strokeColor=#82b366;" parent="1" source="lV4OFVbkJ7nxnQ59gAoD-37" target="lV4OFVbkJ7nxnQ59gAoD-47" edge="1">
                    <mxGeometry relative="1" as="geometry">
                        <mxPoint x="2120" y="300" as="targetPoint"/>
                        <Array as="points">
                            <mxPoint x="2115" y="293"/>
                        </Array>
                    </mxGeometry>
                </mxCell>
                <mxCell id="lV4OFVbkJ7nxnQ59gAoD-37" value="&amp;lt;&amp;lt;interface&amp;gt;&amp;gt;&lt;div&gt;MutableStateStore&lt;/div&gt;" style="swimlane;fontStyle=1;align=center;verticalAlign=top;childLayout=stackLayout;horizontal=1;startSize=40;horizontalStack=0;resizeParent=1;resizeParentMax=0;resizeLast=0;collapsible=1;marginBottom=0;whiteSpace=wrap;html=1;fillColor=#d5e8d4;strokeColor=#82b366;" parent="1" vertex="1">
                    <mxGeometry x="2020" y="370" width="190" height="66" as="geometry"/>
                </mxCell>
                <mxCell id="lV4OFVbkJ7nxnQ59gAoD-40" value="+ update(UpdateCommand&amp;lt;S&amp;gt;)" style="text;strokeColor=none;fillColor=none;align=left;verticalAlign=top;spacingLeft=4;spacingRight=4;overflow=hidden;rotatable=0;points=[[0,0.5],[1,0.5]];portConstraint=eastwest;whiteSpace=wrap;html=1;" parent="lV4OFVbkJ7nxnQ59gAoD-37" vertex="1">
                    <mxGeometry y="40" width="190" height="26" as="geometry"/>
                </mxCell>
                <mxCell id="lV4OFVbkJ7nxnQ59gAoD-45" value="&amp;lt;&amp;lt;interface&amp;gt;&amp;gt;&lt;div&gt;StateStore&lt;/div&gt;" style="swimlane;fontStyle=1;align=center;verticalAlign=top;childLayout=stackLayout;horizontal=1;startSize=40;horizontalStack=0;resizeParent=1;resizeParentMax=0;resizeLast=0;collapsible=1;marginBottom=0;whiteSpace=wrap;html=1;fillColor=#d5e8d4;strokeColor=#82b366;" parent="1" vertex="1">
                    <mxGeometry x="2020" y="200" width="190" height="92" as="geometry"/>
                </mxCell>
                <mxCell id="lV4OFVbkJ7nxnQ59gAoD-46" value="+ getState(): S" style="text;strokeColor=none;fillColor=none;align=left;verticalAlign=top;spacingLeft=4;spacingRight=4;overflow=hidden;rotatable=0;points=[[0,0.5],[1,0.5]];portConstraint=eastwest;whiteSpace=wrap;html=1;" parent="lV4OFVbkJ7nxnQ59gAoD-45" vertex="1">
                    <mxGeometry y="40" width="190" height="26" as="geometry"/>
                </mxCell>
                <mxCell id="lV4OFVbkJ7nxnQ59gAoD-47" value="+ getStateStream(): Stream&amp;lt;S&amp;gt;" style="text;strokeColor=none;fillColor=none;align=left;verticalAlign=top;spacingLeft=4;spacingRight=4;overflow=hidden;rotatable=0;points=[[0,0.5],[1,0.5]];portConstraint=eastwest;whiteSpace=wrap;html=1;" parent="lV4OFVbkJ7nxnQ59gAoD-45" vertex="1">
                    <mxGeometry y="66" width="190" height="26" as="geometry"/>
                </mxCell>
                <mxCell id="AV7eaYbvX1PnVWqEoYlQ-1" value="&amp;lt;&amp;lt;interface&amp;gt;&amp;gt;&lt;div&gt;StackNavigator&lt;/div&gt;" style="swimlane;fontStyle=1;align=center;verticalAlign=top;childLayout=stackLayout;horizontal=1;startSize=40;horizontalStack=0;resizeParent=1;resizeParentMax=0;resizeLast=0;collapsible=1;marginBottom=0;whiteSpace=wrap;html=1;fillColor=#d5e8d4;strokeColor=#82b366;" parent="1" vertex="1">
                    <mxGeometry x="1010" y="470" width="190" height="144" as="geometry">
                        <mxRectangle x="450" y="360" width="120" height="30" as="alternateBounds"/>
                    </mxGeometry>
                </mxCell>
                <mxCell id="132" value="+ getStack(): S" style="text;strokeColor=none;fillColor=none;align=left;verticalAlign=top;spacingLeft=4;spacingRight=4;overflow=hidden;rotatable=0;points=[[0,0.5],[1,0.5]];portConstraint=eastwest;whiteSpace=wrap;html=1;" parent="AV7eaYbvX1PnVWqEoYlQ-1" vertex="1">
                    <mxGeometry y="40" width="190" height="26" as="geometry"/>
                </mxCell>
                <mxCell id="135" value="+ getStackStream(): Stream&amp;lt;S&amp;gt;" style="text;strokeColor=none;fillColor=none;align=left;verticalAlign=top;spacingLeft=4;spacingRight=4;overflow=hidden;rotatable=0;points=[[0,0.5],[1,0.5]];portConstraint=eastwest;whiteSpace=wrap;html=1;" parent="AV7eaYbvX1PnVWqEoYlQ-1" vertex="1">
                    <mxGeometry y="66" width="190" height="26" as="geometry"/>
                </mxCell>
                <mxCell id="AV7eaYbvX1PnVWqEoYlQ-8" value="+ push(String)" style="text;strokeColor=none;fillColor=none;align=left;verticalAlign=top;spacingLeft=4;spacingRight=4;overflow=hidden;rotatable=0;points=[[0,0.5],[1,0.5]];portConstraint=eastwest;whiteSpace=wrap;html=1;" parent="AV7eaYbvX1PnVWqEoYlQ-1" vertex="1">
                    <mxGeometry y="92" width="190" height="26" as="geometry"/>
                </mxCell>
                <mxCell id="AV7eaYbvX1PnVWqEoYlQ-9" value="+ pop()" style="text;strokeColor=none;fillColor=none;align=left;verticalAlign=top;spacingLeft=4;spacingRight=4;overflow=hidden;rotatable=0;points=[[0,0.5],[1,0.5]];portConstraint=eastwest;whiteSpace=wrap;html=1;" parent="AV7eaYbvX1PnVWqEoYlQ-1" vertex="1">
                    <mxGeometry y="118" width="190" height="26" as="geometry"/>
                </mxCell>
                <mxCell id="2" value="&amp;lt;&amp;lt;interface&amp;gt;&amp;gt;&lt;div&gt;ViewModel&amp;lt;V, A&amp;gt;&lt;/div&gt;" style="swimlane;fontStyle=1;align=center;verticalAlign=top;childLayout=stackLayout;horizontal=1;startSize=40;horizontalStack=0;resizeParent=1;resizeParentMax=0;resizeLast=0;collapsible=1;marginBottom=0;whiteSpace=wrap;html=1;fillColor=#d5e8d4;strokeColor=#82b366;" parent="1" vertex="1">
                    <mxGeometry x="430" y="280" width="190" height="118" as="geometry">
                        <mxRectangle x="450" y="360" width="120" height="30" as="alternateBounds"/>
                    </mxGeometry>
                </mxCell>
                <mxCell id="3" value="+ getState(): V" style="text;strokeColor=none;fillColor=none;align=left;verticalAlign=top;spacingLeft=4;spacingRight=4;overflow=hidden;rotatable=0;points=[[0,0.5],[1,0.5]];portConstraint=eastwest;whiteSpace=wrap;html=1;" parent="2" vertex="1">
                    <mxGeometry y="40" width="190" height="26" as="geometry"/>
                </mxCell>
                <mxCell id="4" value="+ getStateStream(): Stream&amp;lt;V&amp;gt;" style="text;strokeColor=none;fillColor=none;align=left;verticalAlign=top;spacingLeft=4;spacingRight=4;overflow=hidden;rotatable=0;points=[[0,0.5],[1,0.5]];portConstraint=eastwest;whiteSpace=wrap;html=1;" parent="2" vertex="1">
                    <mxGeometry y="66" width="190" height="26" as="geometry"/>
                </mxCell>
                <mxCell id="5" value="+ handleAction(A)" style="text;strokeColor=none;fillColor=none;align=left;verticalAlign=top;spacingLeft=4;spacingRight=4;overflow=hidden;rotatable=0;points=[[0,0.5],[1,0.5]];portConstraint=eastwest;whiteSpace=wrap;html=1;" parent="2" vertex="1">
                    <mxGeometry y="92" width="190" height="26" as="geometry"/>
                </mxCell>
                <mxCell id="16" value="" style="edgeStyle=none;html=1;endArrow=block;endFill=0;dashed=1;fillColor=#d5e8d4;strokeColor=#82b366;" parent="1" source="12" target="AV7eaYbvX1PnVWqEoYlQ-9" edge="1">
                    <mxGeometry relative="1" as="geometry"/>
                </mxCell>
                <mxCell id="12" value="StackNavigatorImpl" style="swimlane;fontStyle=1;align=center;verticalAlign=top;childLayout=stackLayout;horizontal=1;startSize=26;horizontalStack=0;resizeParent=1;resizeParentMax=0;resizeLast=0;collapsible=1;marginBottom=0;whiteSpace=wrap;html=1;fillColor=#ffe6cc;strokeColor=#d79b00;" parent="1" vertex="1">
                    <mxGeometry x="1010" y="670" width="190" height="188" as="geometry">
                        <mxRectangle x="140" y="360" width="90" height="30" as="alternateBounds"/>
                    </mxGeometry>
                </mxCell>
                <mxCell id="46" value="- stack: StateStream&amp;lt;S&amp;gt;" style="text;strokeColor=none;fillColor=none;align=left;verticalAlign=top;spacingLeft=4;spacingRight=4;overflow=hidden;rotatable=0;points=[[0,0.5],[1,0.5]];portConstraint=eastwest;whiteSpace=wrap;html=1;" parent="12" vertex="1">
                    <mxGeometry y="26" width="190" height="24" as="geometry"/>
                </mxCell>
                <mxCell id="13" value="..." style="text;strokeColor=none;fillColor=none;align=left;verticalAlign=top;spacingLeft=4;spacingRight=4;overflow=hidden;rotatable=0;points=[[0,0.5],[1,0.5]];portConstraint=eastwest;whiteSpace=wrap;html=1;" parent="12" vertex="1">
                    <mxGeometry y="50" width="190" height="26" as="geometry"/>
                </mxCell>
                <mxCell id="14" value="" style="line;strokeWidth=1;fillColor=none;align=left;verticalAlign=middle;spacingTop=-1;spacingLeft=3;spacingRight=3;rotatable=0;labelPosition=right;points=[];portConstraint=eastwest;strokeColor=inherit;" parent="12" vertex="1">
                    <mxGeometry y="76" width="190" height="8" as="geometry"/>
                </mxCell>
                <mxCell id="133" value="+ getStack(): S" style="text;strokeColor=none;fillColor=none;align=left;verticalAlign=top;spacingLeft=4;spacingRight=4;overflow=hidden;rotatable=0;points=[[0,0.5],[1,0.5]];portConstraint=eastwest;whiteSpace=wrap;html=1;" parent="12" vertex="1">
                    <mxGeometry y="84" width="190" height="26" as="geometry"/>
                </mxCell>
                <mxCell id="134" value="+ getStackStream(): Stream&amp;lt;S&amp;gt;" style="text;strokeColor=none;fillColor=none;align=left;verticalAlign=top;spacingLeft=4;spacingRight=4;overflow=hidden;rotatable=0;points=[[0,0.5],[1,0.5]];portConstraint=eastwest;whiteSpace=wrap;html=1;" parent="12" vertex="1">
                    <mxGeometry y="110" width="190" height="26" as="geometry"/>
                </mxCell>
                <mxCell id="18" value="+ push(String)" style="text;strokeColor=none;fillColor=none;align=left;verticalAlign=top;spacingLeft=4;spacingRight=4;overflow=hidden;rotatable=0;points=[[0,0.5],[1,0.5]];portConstraint=eastwest;whiteSpace=wrap;html=1;" parent="12" vertex="1">
                    <mxGeometry y="136" width="190" height="26" as="geometry"/>
                </mxCell>
                <mxCell id="17" value="+ pop()" style="text;strokeColor=none;fillColor=none;align=left;verticalAlign=top;spacingLeft=4;spacingRight=4;overflow=hidden;rotatable=0;points=[[0,0.5],[1,0.5]];portConstraint=eastwest;whiteSpace=wrap;html=1;" parent="12" vertex="1">
                    <mxGeometry y="162" width="190" height="26" as="geometry"/>
                </mxCell>
                <mxCell id="28" style="edgeStyle=none;html=1;entryX=0.499;entryY=1.035;entryDx=0;entryDy=0;entryPerimeter=0;endArrow=none;endFill=0;startArrow=open;startFill=0;fillColor=#d5e8d4;strokeColor=#82b366;" parent="1" source="23" target="02XY2JCdMLhreh1r9P0p-47" edge="1">
                    <mxGeometry relative="1" as="geometry"/>
                </mxCell>
                <mxCell id="146" style="edgeStyle=orthogonalEdgeStyle;html=1;entryX=0;entryY=0.5;entryDx=0;entryDy=0;exitX=1;exitY=0.25;exitDx=0;exitDy=0;rounded=0;dashed=1;endArrow=open;endFill=0;fillColor=#d5e8d4;strokeColor=#82b366;" parent="1" source="23" target="4" edge="1">
                    <mxGeometry relative="1" as="geometry">
                        <Array as="points">
                            <mxPoint x="370" y="491"/>
                            <mxPoint x="370" y="359"/>
                        </Array>
                    </mxGeometry>
                </mxCell>
                <mxCell id="23" value="&amp;lt;&amp;lt;interface&amp;gt;&amp;gt;&lt;div&gt;ViewModelFactory&amp;lt;V, A&amp;gt;&lt;/div&gt;" style="swimlane;fontStyle=1;align=center;verticalAlign=top;childLayout=stackLayout;horizontal=1;startSize=40;horizontalStack=0;resizeParent=1;resizeParentMax=0;resizeLast=0;collapsible=1;marginBottom=0;whiteSpace=wrap;html=1;fillColor=#d5e8d4;strokeColor=#82b366;" parent="1" vertex="1">
                    <mxGeometry x="140" y="470" width="190" height="84" as="geometry">
                        <mxRectangle x="450" y="360" width="120" height="30" as="alternateBounds"/>
                    </mxGeometry>
                </mxCell>
                <mxCell id="25" value="+ makeViewModel():&lt;br&gt;&lt;span style=&quot;white-space: pre;&quot;&gt;&#x9;&lt;/span&gt;ViewModel&amp;lt;V, A&amp;gt;" style="text;strokeColor=none;fillColor=none;align=left;verticalAlign=top;spacingLeft=4;spacingRight=4;overflow=hidden;rotatable=0;points=[[0,0.5],[1,0.5]];portConstraint=eastwest;whiteSpace=wrap;html=1;" parent="23" vertex="1">
                    <mxGeometry y="40" width="190" height="44" as="geometry"/>
                </mxCell>
                <mxCell id="36" style="edgeStyle=orthogonalEdgeStyle;html=1;entryX=-0.003;entryY=0.189;entryDx=0;entryDy=0;startArrow=none;startFill=0;endArrow=block;endFill=0;dashed=1;rounded=0;exitX=1.004;exitY=0.159;exitDx=0;exitDy=0;exitPerimeter=0;entryPerimeter=0;fillColor=#d5e8d4;strokeColor=#82b366;" parent="1" source="29" target="23" edge="1">
                    <mxGeometry relative="1" as="geometry">
                        <Array as="points"/>
                    </mxGeometry>
                </mxCell>
                <mxCell id="29" value="ViewModelFactoryImpl" style="swimlane;fontStyle=1;align=center;verticalAlign=top;childLayout=stackLayout;horizontal=1;startSize=26;horizontalStack=0;resizeParent=1;resizeParentMax=0;resizeLast=0;collapsible=1;marginBottom=0;whiteSpace=wrap;html=1;fillColor=#ffe6cc;strokeColor=#d79b00;" parent="1" vertex="1">
                    <mxGeometry x="-240" y="470" width="190" height="100" as="geometry">
                        <mxRectangle x="140" y="360" width="90" height="30" as="alternateBounds"/>
                    </mxGeometry>
                </mxCell>
                <mxCell id="30" value="..." style="text;strokeColor=none;fillColor=none;align=left;verticalAlign=top;spacingLeft=4;spacingRight=4;overflow=hidden;rotatable=0;points=[[0,0.5],[1,0.5]];portConstraint=eastwest;whiteSpace=wrap;html=1;" parent="29" vertex="1">
                    <mxGeometry y="26" width="190" height="26" as="geometry"/>
                </mxCell>
                <mxCell id="31" value="" style="line;strokeWidth=1;fillColor=none;align=left;verticalAlign=middle;spacingTop=-1;spacingLeft=3;spacingRight=3;rotatable=0;labelPosition=right;points=[];portConstraint=eastwest;strokeColor=inherit;" parent="29" vertex="1">
                    <mxGeometry y="52" width="190" height="8" as="geometry"/>
                </mxCell>
                <mxCell id="35" value="+ makeViewModel():&lt;br&gt;&lt;span style=&quot;white-space: pre;&quot;&gt;&#x9;&lt;/span&gt;ViewModel&amp;lt;V, A&amp;gt;" style="text;strokeColor=none;fillColor=none;align=left;verticalAlign=top;spacingLeft=4;spacingRight=4;overflow=hidden;rotatable=0;points=[[0,0.5],[1,0.5]];portConstraint=eastwest;whiteSpace=wrap;html=1;" parent="29" vertex="1">
                    <mxGeometry y="60" width="190" height="40" as="geometry"/>
                </mxCell>
                <mxCell id="39" value="" style="endArrow=none;dashed=1;html=1;dashPattern=1 3;strokeWidth=2;rounded=0;fillColor=#ffe6cc;strokeColor=#d79b00;" parent="1" edge="1">
                    <mxGeometry width="50" height="50" relative="1" as="geometry">
                        <mxPoint x="3280" y="1000" as="sourcePoint"/>
                        <mxPoint x="-960" y="1001" as="targetPoint"/>
                    </mxGeometry>
                </mxCell>
                <mxCell id="41" style="edgeStyle=none;html=1;startArrow=none;startFill=0;endArrow=open;endFill=0;exitX=0.475;exitY=1.006;exitDx=0;exitDy=0;exitPerimeter=0;fillColor=#ffe6cc;strokeColor=#d79b00;" parent="1" source="35" edge="1">
                    <mxGeometry relative="1" as="geometry">
                        <mxPoint x="-150" y="1000" as="targetPoint"/>
                    </mxGeometry>
                </mxCell>
                <mxCell id="43" style="edgeStyle=none;html=1;startArrow=none;startFill=0;endArrow=open;endFill=0;fillColor=#ffe6cc;strokeColor=#d79b00;" parent="1" source="lV4OFVbkJ7nxnQ59gAoD-23" edge="1">
                    <mxGeometry relative="1" as="geometry">
                        <mxPoint x="3075" y="1000" as="targetPoint"/>
                    </mxGeometry>
                </mxCell>
                <mxCell id="45" style="edgeStyle=orthogonalEdgeStyle;html=1;startArrow=none;startFill=0;endArrow=open;endFill=0;exitX=0;exitY=0.5;exitDx=0;exitDy=0;rounded=0;fillColor=#ffe6cc;strokeColor=#d79b00;" parent="1" source="02XY2JCdMLhreh1r9P0p-45" edge="1">
                    <mxGeometry relative="1" as="geometry">
                        <mxPoint x="60" y="1000" as="targetPoint"/>
                        <Array as="points">
                            <mxPoint x="140" y="320"/>
                            <mxPoint x="60" y="320"/>
                        </Array>
                    </mxGeometry>
                </mxCell>
                <mxCell id="48" style="edgeStyle=orthogonalEdgeStyle;rounded=0;html=1;startArrow=diamond;startFill=0;endArrow=open;endFill=0;fillColor=#d5e8d4;strokeColor=#82b366;" parent="1" edge="1">
                    <mxGeometry relative="1" as="geometry">
                        <mxPoint x="1350" y="297" as="targetPoint"/>
                        <Array as="points">
                            <mxPoint x="710" y="540"/>
                            <mxPoint x="710" y="297"/>
                        </Array>
                        <mxPoint x="630" y="540" as="sourcePoint"/>
                    </mxGeometry>
                </mxCell>
                <mxCell id="61" style="edgeStyle=orthogonalEdgeStyle;rounded=0;html=1;entryX=1;entryY=0.381;entryDx=0;entryDy=0;startArrow=none;startFill=0;endArrow=block;endFill=0;entryPerimeter=0;dashed=1;fillColor=#d5e8d4;strokeColor=#82b366;" parent="1" source="lV4OFVbkJ7nxnQ59gAoD-3" target="lV4OFVbkJ7nxnQ59gAoD-37" edge="1">
                    <mxGeometry relative="1" as="geometry">
                        <Array as="points">
                            <mxPoint x="2250" y="793"/>
                            <mxPoint x="2250" y="395"/>
                        </Array>
                    </mxGeometry>
                </mxCell>
                <mxCell id="65" style="edgeStyle=orthogonalEdgeStyle;rounded=0;html=1;startArrow=none;startFill=0;endArrow=open;endFill=0;fillColor=#d5e8d4;strokeColor=#82b366;" parent="1" edge="1">
                    <mxGeometry relative="1" as="geometry">
                        <mxPoint x="1540" y="590" as="sourcePoint"/>
                        <mxPoint x="2020" y="590" as="targetPoint"/>
                        <Array as="points">
                            <mxPoint x="1660" y="590"/>
                            <mxPoint x="1660" y="590"/>
                        </Array>
                    </mxGeometry>
                </mxCell>
                <mxCell id="171" style="edgeStyle=orthogonalEdgeStyle;rounded=0;html=1;exitX=0;exitY=0.25;exitDx=0;exitDy=0;entryX=1;entryY=0.942;entryDx=0;entryDy=0;entryPerimeter=0;startArrow=open;startFill=0;endArrow=diamond;endFill=0;fillColor=#d5e8d4;strokeColor=#82b366;" parent="1" source="71" target="lV4OFVbkJ7nxnQ59gAoD-56" edge="1">
                    <mxGeometry relative="1" as="geometry"/>
                </mxCell>
                <mxCell id="71" value="&amp;lt;&amp;lt;interface&amp;gt;&amp;gt;&lt;div&gt;UIMapper&amp;lt;X, Y&amp;gt;&lt;/div&gt;" style="swimlane;fontStyle=1;align=center;verticalAlign=top;childLayout=stackLayout;horizontal=1;startSize=40;horizontalStack=0;resizeParent=1;resizeParentMax=0;resizeLast=0;collapsible=1;marginBottom=0;whiteSpace=wrap;html=1;fillColor=#d5e8d4;strokeColor=#82b366;" parent="1" vertex="1">
                    <mxGeometry x="725" y="670" width="190" height="66" as="geometry">
                        <mxRectangle x="450" y="360" width="120" height="30" as="alternateBounds"/>
                    </mxGeometry>
                </mxCell>
                <mxCell id="72" value="+ map(X): Y" style="text;strokeColor=none;fillColor=none;align=left;verticalAlign=top;spacingLeft=4;spacingRight=4;overflow=hidden;rotatable=0;points=[[0,0.5],[1,0.5]];portConstraint=eastwest;whiteSpace=wrap;html=1;" parent="71" vertex="1">
                    <mxGeometry y="40" width="190" height="26" as="geometry"/>
                </mxCell>
                <mxCell id="74" value="" style="edgeStyle=none;html=1;endArrow=block;endFill=0;dashed=1;entryX=0.5;entryY=1;entryDx=0;entryDy=0;fillColor=#d5e8d4;strokeColor=#82b366;" parent="1" source="75" target="71" edge="1">
                    <mxGeometry relative="1" as="geometry">
                        <mxPoint x="820" y="730" as="targetPoint"/>
                    </mxGeometry>
                </mxCell>
                <mxCell id="75" value="UIMapperImpl" style="swimlane;fontStyle=1;align=center;verticalAlign=top;childLayout=stackLayout;horizontal=1;startSize=26;horizontalStack=0;resizeParent=1;resizeParentMax=0;resizeLast=0;collapsible=1;marginBottom=0;whiteSpace=wrap;html=1;fillColor=#ffe6cc;strokeColor=#d79b00;" parent="1" vertex="1">
                    <mxGeometry x="725" y="788" width="190" height="86" as="geometry">
                        <mxRectangle x="140" y="360" width="90" height="30" as="alternateBounds"/>
                    </mxGeometry>
                </mxCell>
                <mxCell id="77" value="..." style="text;strokeColor=none;fillColor=none;align=left;verticalAlign=top;spacingLeft=4;spacingRight=4;overflow=hidden;rotatable=0;points=[[0,0.5],[1,0.5]];portConstraint=eastwest;whiteSpace=wrap;html=1;" parent="75" vertex="1">
                    <mxGeometry y="26" width="190" height="26" as="geometry"/>
                </mxCell>
                <mxCell id="78" value="" style="line;strokeWidth=1;fillColor=none;align=left;verticalAlign=middle;spacingTop=-1;spacingLeft=3;spacingRight=3;rotatable=0;labelPosition=right;points=[];portConstraint=eastwest;strokeColor=inherit;" parent="75" vertex="1">
                    <mxGeometry y="52" width="190" height="8" as="geometry"/>
                </mxCell>
                <mxCell id="79" value="+ map(X): Y" style="text;strokeColor=none;fillColor=none;align=left;verticalAlign=top;spacingLeft=4;spacingRight=4;overflow=hidden;rotatable=0;points=[[0,0.5],[1,0.5]];portConstraint=eastwest;whiteSpace=wrap;html=1;" parent="75" vertex="1">
                    <mxGeometry y="60" width="190" height="26" as="geometry"/>
                </mxCell>
                <mxCell id="83" value="" style="whiteSpace=wrap;html=1;aspect=fixed;fillColor=#d5e8d4;strokeColor=#82b366;" parent="1" vertex="1">
                    <mxGeometry x="-930" y="1077" width="20" height="20" as="geometry"/>
                </mxCell>
                <mxCell id="84" value="Interface" style="text;html=1;strokeColor=none;fillColor=none;align=left;verticalAlign=middle;whiteSpace=wrap;rounded=0;dashed=1;dashPattern=1 1;" parent="1" vertex="1">
                    <mxGeometry x="-900" y="1072" width="60" height="30" as="geometry"/>
                </mxCell>
                <mxCell id="85" value="" style="whiteSpace=wrap;html=1;aspect=fixed;fillColor=#dae8fc;strokeColor=#6c8ebf;" parent="1" vertex="1">
                    <mxGeometry x="-930" y="1107" width="20" height="20" as="geometry"/>
                </mxCell>
                <mxCell id="86" value="Pure Implementation&amp;nbsp;" style="text;html=1;strokeColor=none;fillColor=none;align=left;verticalAlign=middle;whiteSpace=wrap;rounded=0;dashed=1;dashPattern=1 1;" parent="1" vertex="1">
                    <mxGeometry x="-900" y="1102" width="170" height="30" as="geometry"/>
                </mxCell>
                <mxCell id="87" value="" style="whiteSpace=wrap;html=1;aspect=fixed;fillColor=#ffe6cc;strokeColor=#d79b00;" parent="1" vertex="1">
                    <mxGeometry x="-930" y="1137" width="20" height="20" as="geometry"/>
                </mxCell>
                <mxCell id="88" value="Platform Dependent Implementation" style="text;html=1;strokeColor=none;fillColor=none;align=left;verticalAlign=middle;whiteSpace=wrap;rounded=0;dashed=1;dashPattern=1 1;" parent="1" vertex="1">
                    <mxGeometry x="-900" y="1132" width="230" height="30" as="geometry"/>
                </mxCell>
                <mxCell id="91" value="Element Type" style="text;html=1;strokeColor=none;fillColor=none;align=left;verticalAlign=middle;whiteSpace=wrap;rounded=0;fontSize=14;" parent="1" vertex="1">
                    <mxGeometry x="-930" y="1042" width="160" height="20" as="geometry"/>
                </mxCell>
                <mxCell id="92" style="edgeStyle=orthogonalEdgeStyle;rounded=0;html=1;dashed=1;startArrow=none;startFill=0;endArrow=block;endFill=0;entryX=0.503;entryY=1.005;entryDx=0;entryDy=0;entryPerimeter=0;fillColor=#d5e8d4;strokeColor=#82b366;" parent="1" source="93" target="101" edge="1">
                    <mxGeometry relative="1" as="geometry">
                        <Array as="points"/>
                        <mxPoint x="2420" y="470" as="targetPoint"/>
                    </mxGeometry>
                </mxCell>
                <mxCell id="93" value="RepositoryImpl" style="swimlane;fontStyle=1;align=center;verticalAlign=top;childLayout=stackLayout;horizontal=1;startSize=26;horizontalStack=0;resizeParent=1;resizeParentMax=0;resizeLast=0;collapsible=1;marginBottom=0;whiteSpace=wrap;html=1;fillColor=#dae8fc;strokeColor=#6c8ebf;" parent="1" vertex="1">
                    <mxGeometry x="2341" y="560" width="160" height="86" as="geometry"/>
                </mxCell>
                <mxCell id="94" value="..." style="text;strokeColor=none;fillColor=none;align=left;verticalAlign=top;spacingLeft=4;spacingRight=4;overflow=hidden;rotatable=0;points=[[0,0.5],[1,0.5]];portConstraint=eastwest;whiteSpace=wrap;html=1;" parent="93" vertex="1">
                    <mxGeometry y="26" width="160" height="26" as="geometry"/>
                </mxCell>
                <mxCell id="95" value="" style="line;strokeWidth=1;fillColor=none;align=left;verticalAlign=middle;spacingTop=-1;spacingLeft=3;spacingRight=3;rotatable=0;labelPosition=right;points=[];portConstraint=eastwest;strokeColor=inherit;" parent="93" vertex="1">
                    <mxGeometry y="52" width="160" height="8" as="geometry"/>
                </mxCell>
                <mxCell id="96" value="..." style="text;strokeColor=none;fillColor=none;align=left;verticalAlign=top;spacingLeft=4;spacingRight=4;overflow=hidden;rotatable=0;points=[[0,0.5],[1,0.5]];portConstraint=eastwest;whiteSpace=wrap;html=1;" parent="93" vertex="1">
                    <mxGeometry y="60" width="160" height="26" as="geometry"/>
                </mxCell>
                <mxCell id="97" style="edgeStyle=orthogonalEdgeStyle;rounded=0;html=1;entryX=0.5;entryY=1;entryDx=0;entryDy=0;startArrow=open;startFill=0;endArrow=none;endFill=0;fillColor=#d5e8d4;strokeColor=#82b366;" parent="1" source="98" target="93" edge="1">
                    <mxGeometry relative="1" as="geometry"/>
                </mxCell>
                <mxCell id="98" value="&amp;lt;&amp;lt;interface&amp;gt;&amp;gt;&lt;div&gt;DataSourcePort&lt;/div&gt;" style="swimlane;fontStyle=1;align=center;verticalAlign=top;childLayout=stackLayout;horizontal=1;startSize=40;horizontalStack=0;resizeParent=1;resizeParentMax=0;resizeLast=0;collapsible=1;marginBottom=0;whiteSpace=wrap;html=1;fillColor=#d5e8d4;strokeColor=#82b366;" parent="1" vertex="1">
                    <mxGeometry x="2341" y="722" width="160" height="66" as="geometry"/>
                </mxCell>
                <mxCell id="99" value="..." style="text;strokeColor=none;fillColor=none;align=left;verticalAlign=top;spacingLeft=4;spacingRight=4;overflow=hidden;rotatable=0;points=[[0,0.5],[1,0.5]];portConstraint=eastwest;whiteSpace=wrap;html=1;" parent="98" vertex="1">
                    <mxGeometry y="40" width="160" height="26" as="geometry"/>
                </mxCell>
                <mxCell id="100" value="&amp;lt;&amp;lt;interface&amp;gt;&amp;gt;&lt;div&gt;Repository&amp;lt;R&amp;gt;&lt;/div&gt;" style="swimlane;fontStyle=1;align=center;verticalAlign=top;childLayout=stackLayout;horizontal=1;startSize=40;horizontalStack=0;resizeParent=1;resizeParentMax=0;resizeLast=0;collapsible=1;marginBottom=0;whiteSpace=wrap;html=1;fillColor=#d5e8d4;strokeColor=#82b366;" parent="1" vertex="1">
                    <mxGeometry x="2340" y="370" width="160" height="66" as="geometry"/>
                </mxCell>
                <mxCell id="101" value="..." style="text;strokeColor=none;fillColor=none;align=left;verticalAlign=top;spacingLeft=4;spacingRight=4;overflow=hidden;rotatable=0;points=[[0,0.5],[1,0.5]];portConstraint=eastwest;whiteSpace=wrap;html=1;" parent="100" vertex="1">
                    <mxGeometry y="40" width="160" height="26" as="geometry"/>
                </mxCell>
                <mxCell id="102" value="DataSourceAdapter" style="swimlane;fontStyle=1;align=center;verticalAlign=top;childLayout=stackLayout;horizontal=1;startSize=26;horizontalStack=0;resizeParent=1;resizeParentMax=0;resizeLast=0;collapsible=1;marginBottom=0;whiteSpace=wrap;html=1;fillColor=#ffe6cc;strokeColor=#d79b00;" parent="1" vertex="1">
                    <mxGeometry x="2610" y="720" width="210" height="86" as="geometry"/>
                </mxCell>
                <mxCell id="103" value="..." style="text;strokeColor=none;fillColor=none;align=left;verticalAlign=top;spacingLeft=4;spacingRight=4;overflow=hidden;rotatable=0;points=[[0,0.5],[1,0.5]];portConstraint=eastwest;whiteSpace=wrap;html=1;" parent="102" vertex="1">
                    <mxGeometry y="26" width="210" height="26" as="geometry"/>
                </mxCell>
                <mxCell id="104" value="" style="line;strokeWidth=1;fillColor=none;align=left;verticalAlign=middle;spacingTop=-1;spacingLeft=3;spacingRight=3;rotatable=0;labelPosition=right;points=[];portConstraint=eastwest;strokeColor=inherit;" parent="102" vertex="1">
                    <mxGeometry y="52" width="210" height="8" as="geometry"/>
                </mxCell>
                <mxCell id="105" value="..." style="text;strokeColor=none;fillColor=none;align=left;verticalAlign=top;spacingLeft=4;spacingRight=4;overflow=hidden;rotatable=0;points=[[0,0.5],[1,0.5]];portConstraint=eastwest;whiteSpace=wrap;html=1;" parent="102" vertex="1">
                    <mxGeometry y="60" width="210" height="26" as="geometry"/>
                </mxCell>
                <mxCell id="106" style="edgeStyle=none;html=1;startArrow=none;startFill=0;endArrow=open;endFill=0;fillColor=#ffe6cc;strokeColor=#d79b00;" parent="1" source="105" edge="1">
                    <mxGeometry relative="1" as="geometry">
                        <mxPoint x="2715" y="1000" as="targetPoint"/>
                    </mxGeometry>
                </mxCell>
                <mxCell id="107" style="edgeStyle=orthogonalEdgeStyle;rounded=0;html=1;entryX=1.005;entryY=0.258;entryDx=0;entryDy=0;fontSize=14;endArrow=block;endFill=0;dashed=1;entryPerimeter=0;fillColor=#d5e8d4;strokeColor=#82b366;" parent="1" target="98" edge="1">
                    <mxGeometry relative="1" as="geometry">
                        <Array as="points"/>
                        <mxPoint x="2610" y="739" as="sourcePoint"/>
                    </mxGeometry>
                </mxCell>
                <mxCell id="108" style="edgeStyle=orthogonalEdgeStyle;rounded=0;html=1;entryX=-0.002;entryY=0.289;entryDx=0;entryDy=0;fontSize=14;startArrow=none;startFill=0;endArrow=open;endFill=0;entryPerimeter=0;exitX=1;exitY=0.118;exitDx=0;exitDy=0;exitPerimeter=0;fillColor=#d5e8d4;strokeColor=#82b366;" parent="1" source="145" target="100" edge="1">
                    <mxGeometry relative="1" as="geometry">
                        <mxPoint x="1570" y="560" as="sourcePoint"/>
                        <Array as="points">
                            <mxPoint x="2280" y="560"/>
                            <mxPoint x="2280" y="390"/>
                            <mxPoint x="2340" y="390"/>
                        </Array>
                    </mxGeometry>
                </mxCell>
                <mxCell id="109" style="edgeStyle=orthogonalEdgeStyle;rounded=0;html=1;dashed=1;startArrow=none;startFill=0;endArrow=block;endFill=0;entryX=0.503;entryY=1.005;entryDx=0;entryDy=0;entryPerimeter=0;fillColor=#d5e8d4;strokeColor=#82b366;" parent="1" source="110" target="118" edge="1">
                    <mxGeometry relative="1" as="geometry">
                        <Array as="points"/>
                        <mxPoint x="1770" y="380" as="targetPoint"/>
                    </mxGeometry>
                </mxCell>
                <mxCell id="110" value="ServiceImpl" style="swimlane;fontStyle=1;align=center;verticalAlign=top;childLayout=stackLayout;horizontal=1;startSize=26;horizontalStack=0;resizeParent=1;resizeParentMax=0;resizeLast=0;collapsible=1;marginBottom=0;whiteSpace=wrap;html=1;fillColor=#dae8fc;strokeColor=#6c8ebf;" parent="1" vertex="1">
                    <mxGeometry x="1691" y="640" width="160" height="86" as="geometry"/>
                </mxCell>
                <mxCell id="111" value="..." style="text;strokeColor=none;fillColor=none;align=left;verticalAlign=top;spacingLeft=4;spacingRight=4;overflow=hidden;rotatable=0;points=[[0,0.5],[1,0.5]];portConstraint=eastwest;whiteSpace=wrap;html=1;" parent="110" vertex="1">
                    <mxGeometry y="26" width="160" height="26" as="geometry"/>
                </mxCell>
                <mxCell id="112" value="" style="line;strokeWidth=1;fillColor=none;align=left;verticalAlign=middle;spacingTop=-1;spacingLeft=3;spacingRight=3;rotatable=0;labelPosition=right;points=[];portConstraint=eastwest;strokeColor=inherit;" parent="110" vertex="1">
                    <mxGeometry y="52" width="160" height="8" as="geometry"/>
                </mxCell>
                <mxCell id="113" value="..." style="text;strokeColor=none;fillColor=none;align=left;verticalAlign=top;spacingLeft=4;spacingRight=4;overflow=hidden;rotatable=0;points=[[0,0.5],[1,0.5]];portConstraint=eastwest;whiteSpace=wrap;html=1;" parent="110" vertex="1">
                    <mxGeometry y="60" width="160" height="26" as="geometry"/>
                </mxCell>
                <mxCell id="114" style="edgeStyle=orthogonalEdgeStyle;rounded=0;html=1;entryX=0.5;entryY=1;entryDx=0;entryDy=0;startArrow=open;startFill=0;endArrow=none;endFill=0;fillColor=#d5e8d4;strokeColor=#82b366;" parent="1" source="115" target="110" edge="1">
                    <mxGeometry relative="1" as="geometry"/>
                </mxCell>
                <mxCell id="115" value="&amp;lt;&amp;lt;interface&amp;gt;&amp;gt;&lt;div&gt;ExternalResourcePort&lt;/div&gt;" style="swimlane;fontStyle=1;align=center;verticalAlign=top;childLayout=stackLayout;horizontal=1;startSize=40;horizontalStack=0;resizeParent=1;resizeParentMax=0;resizeLast=0;collapsible=1;marginBottom=0;whiteSpace=wrap;html=1;fillColor=#d5e8d4;strokeColor=#82b366;" parent="1" vertex="1">
                    <mxGeometry x="1691" y="780" width="160" height="66" as="geometry"/>
                </mxCell>
                <mxCell id="116" value="..." style="text;strokeColor=none;fillColor=none;align=left;verticalAlign=top;spacingLeft=4;spacingRight=4;overflow=hidden;rotatable=0;points=[[0,0.5],[1,0.5]];portConstraint=eastwest;whiteSpace=wrap;html=1;" parent="115" vertex="1">
                    <mxGeometry y="40" width="160" height="26" as="geometry"/>
                </mxCell>
                <mxCell id="117" value="&amp;lt;&amp;lt;interface&amp;gt;&amp;gt;&lt;div&gt;Service&lt;/div&gt;" style="swimlane;fontStyle=1;align=center;verticalAlign=top;childLayout=stackLayout;horizontal=1;startSize=40;horizontalStack=0;resizeParent=1;resizeParentMax=0;resizeLast=0;collapsible=1;marginBottom=0;whiteSpace=wrap;html=1;fillColor=#d5e8d4;strokeColor=#82b366;" parent="1" vertex="1">
                    <mxGeometry x="1690" y="280" width="160" height="66" as="geometry"/>
                </mxCell>
                <mxCell id="118" value="..." style="text;strokeColor=none;fillColor=none;align=left;verticalAlign=top;spacingLeft=4;spacingRight=4;overflow=hidden;rotatable=0;points=[[0,0.5],[1,0.5]];portConstraint=eastwest;whiteSpace=wrap;html=1;" parent="117" vertex="1">
                    <mxGeometry y="40" width="160" height="26" as="geometry"/>
                </mxCell>
                <mxCell id="120" style="edgeStyle=orthogonalEdgeStyle;html=1;entryX=0;entryY=0.25;entryDx=0;entryDy=0;rounded=0;endArrow=open;endFill=0;exitX=0.999;exitY=0.101;exitDx=0;exitDy=0;exitPerimeter=0;fillColor=#d5e8d4;strokeColor=#82b366;" parent="1" source="lV4OFVbkJ7nxnQ59gAoD-2" target="117" edge="1">
                    <mxGeometry relative="1" as="geometry">
                        <mxPoint x="1570" y="510" as="sourcePoint"/>
                        <Array as="points">
                            <mxPoint x="1650" y="499"/>
                            <mxPoint x="1650" y="297"/>
                        </Array>
                    </mxGeometry>
                </mxCell>
                <mxCell id="121" style="edgeStyle=orthogonalEdgeStyle;rounded=0;html=1;entryX=0.498;entryY=1.064;entryDx=0;entryDy=0;endArrow=block;endFill=0;dashed=1;entryPerimeter=0;exitX=-0.002;exitY=0.163;exitDx=0;exitDy=0;exitPerimeter=0;fillColor=#d5e8d4;strokeColor=#82b366;" parent="1" source="lV4OFVbkJ7nxnQ59gAoD-20" target="116" edge="1">
                    <mxGeometry relative="1" as="geometry">
                        <Array as="points">
                            <mxPoint x="2930" y="734"/>
                            <mxPoint x="2930" y="900"/>
                            <mxPoint x="1771" y="900"/>
                        </Array>
                    </mxGeometry>
                </mxCell>
                <mxCell id="122" value="" style="endArrow=none;dashed=1;html=1;dashPattern=1 3;strokeWidth=2;rounded=0;fillColor=#f5f5f5;strokeColor=#666666;" parent="1" edge="1">
                    <mxGeometry width="50" height="50" relative="1" as="geometry">
                        <mxPoint x="1930" y="1000" as="sourcePoint"/>
                        <mxPoint x="1930" y="120" as="targetPoint"/>
                    </mxGeometry>
                </mxCell>
                <mxCell id="123" value="Core / Data" style="text;html=1;align=center;verticalAlign=middle;whiteSpace=wrap;rounded=0;fontSize=14;" parent="1" vertex="1">
                    <mxGeometry x="2180" y="110" width="130" height="50" as="geometry"/>
                </mxCell>
                <mxCell id="137" style="edgeStyle=none;html=1;endArrow=open;endFill=0;fillColor=#ffe6cc;strokeColor=#d79b00;" parent="1" source="17" edge="1">
                    <mxGeometry relative="1" as="geometry">
                        <mxPoint x="1105" y="1000" as="targetPoint"/>
                    </mxGeometry>
                </mxCell>
                <mxCell id="140" style="edgeStyle=orthogonalEdgeStyle;html=1;entryX=-0.002;entryY=0.114;entryDx=0;entryDy=0;endArrow=open;endFill=0;entryPerimeter=0;rounded=0;exitX=0.999;exitY=0.801;exitDx=0;exitDy=0;exitPerimeter=0;fillColor=#d5e8d4;strokeColor=#82b366;" parent="1" source="AV7eaYbvX1PnVWqEoYlQ-11" target="AV7eaYbvX1PnVWqEoYlQ-1" edge="1">
                    <mxGeometry relative="1" as="geometry">
                        <mxPoint x="630" y="600" as="sourcePoint"/>
                        <Array as="points">
                            <mxPoint x="740" y="571"/>
                            <mxPoint x="740" y="486"/>
                        </Array>
                    </mxGeometry>
                </mxCell>
                <mxCell id="162" value="" style="endArrow=none;dashed=1;html=1;dashPattern=1 3;strokeWidth=2;rounded=0;fillColor=#f5f5f5;strokeColor=#666666;" parent="1" edge="1">
                    <mxGeometry width="50" height="50" relative="1" as="geometry">
                        <mxPoint x="1610" y="1000" as="sourcePoint"/>
                        <mxPoint x="1610" y="120" as="targetPoint"/>
                    </mxGeometry>
                </mxCell>
                <mxCell id="164" value="Core / Services" style="text;html=1;align=center;verticalAlign=middle;whiteSpace=wrap;rounded=0;fontSize=14;" parent="1" vertex="1">
                    <mxGeometry x="1705" y="110" width="130" height="50" as="geometry"/>
                </mxCell>
                <mxCell id="165" value="" style="endArrow=none;dashed=1;html=1;dashPattern=1 3;strokeWidth=2;rounded=0;fillColor=#f5f5f5;strokeColor=#666666;" parent="1" edge="1">
                    <mxGeometry width="50" height="50" relative="1" as="geometry">
                        <mxPoint x="2900" y="1000" as="sourcePoint"/>
                        <mxPoint x="2900" y="120" as="targetPoint"/>
                    </mxGeometry>
                </mxCell>
                <mxCell id="173" style="edgeStyle=orthogonalEdgeStyle;rounded=0;html=1;startArrow=open;startFill=0;endArrow=none;endFill=0;exitX=-0.003;exitY=0.059;exitDx=0;exitDy=0;exitPerimeter=0;entryX=1;entryY=0.5;entryDx=0;entryDy=0;fillColor=#ffe6cc;strokeColor=#d79b00;" parent="1" source="02XY2JCdMLhreh1r9P0p-22" target="30" edge="1">
                    <mxGeometry relative="1" as="geometry">
                        <mxPoint x="330" y="680" as="targetPoint"/>
                        <Array as="points">
                            <mxPoint x="390" y="484"/>
                            <mxPoint x="390" y="590"/>
                            <mxPoint x="-20" y="590"/>
                            <mxPoint x="-20" y="509"/>
                        </Array>
                    </mxGeometry>
                </mxCell>
                <mxCell id="174" value="Platform / Services" style="text;html=1;align=center;verticalAlign=middle;whiteSpace=wrap;rounded=0;fontSize=14;" parent="1" vertex="1">
                    <mxGeometry x="2985" y="110" width="125" height="50" as="geometry"/>
                </mxCell>
                <mxCell id="182" style="edgeStyle=orthogonalEdgeStyle;rounded=0;html=1;entryX=0;entryY=0.175;entryDx=0;entryDy=0;endArrow=open;endFill=0;exitX=1;exitY=0.5;exitDx=0;exitDy=0;entryPerimeter=0;fillColor=#ffe6cc;strokeColor=#d79b00;" parent="1" source="198" target="75" edge="1">
                    <mxGeometry relative="1" as="geometry">
                        <Array as="points">
                            <mxPoint x="-310" y="509"/>
                            <mxPoint x="-310" y="950"/>
                            <mxPoint x="670" y="950"/>
                            <mxPoint x="670" y="803"/>
                        </Array>
                    </mxGeometry>
                </mxCell>
                <mxCell id="185" style="edgeStyle=orthogonalEdgeStyle;rounded=0;html=1;endArrow=open;endFill=0;fillColor=#dae8fc;strokeColor=#6c8ebf;" parent="1" edge="1">
                    <mxGeometry relative="1" as="geometry">
                        <mxPoint x="2340" y="570" as="targetPoint"/>
                        <Array as="points">
                            <mxPoint x="-330" y="530"/>
                            <mxPoint x="-330" y="970"/>
                            <mxPoint x="2300" y="970"/>
                            <mxPoint x="2300" y="570"/>
                        </Array>
                        <mxPoint x="-370" y="530" as="sourcePoint"/>
                    </mxGeometry>
                </mxCell>
                <mxCell id="187" style="edgeStyle=orthogonalEdgeStyle;rounded=0;html=1;entryX=0.999;entryY=0.159;entryDx=0;entryDy=0;endArrow=open;endFill=0;entryPerimeter=0;exitX=1;exitY=0.5;exitDx=0;exitDy=0;fillColor=#ffe6cc;strokeColor=#d79b00;" parent="1" source="198" target="lV4OFVbkJ7nxnQ59gAoD-20" edge="1">
                    <mxGeometry relative="1" as="geometry">
                        <mxPoint x="330" y="680" as="sourcePoint"/>
                        <Array as="points">
                            <mxPoint x="-310" y="509"/>
                            <mxPoint x="-310" y="950"/>
                            <mxPoint x="3230" y="950"/>
                            <mxPoint x="3230" y="734"/>
                        </Array>
                    </mxGeometry>
                </mxCell>
                <mxCell id="190" style="edgeStyle=orthogonalEdgeStyle;rounded=0;html=1;entryX=0.003;entryY=0.075;entryDx=0;entryDy=0;entryPerimeter=0;endArrow=open;endFill=0;exitX=1;exitY=0.5;exitDx=0;exitDy=0;fillColor=#ffe6cc;strokeColor=#d79b00;" parent="1" source="198" target="12" edge="1">
                    <mxGeometry relative="1" as="geometry">
                        <Array as="points">
                            <mxPoint x="-310" y="509"/>
                            <mxPoint x="-310" y="950"/>
                            <mxPoint x="970" y="950"/>
                            <mxPoint x="970" y="684"/>
                        </Array>
                    </mxGeometry>
                </mxCell>
                <mxCell id="192" style="edgeStyle=orthogonalEdgeStyle;rounded=0;html=1;entryX=0.001;entryY=0.061;entryDx=0;entryDy=0;endArrow=open;endFill=0;entryPerimeter=0;fillColor=#dae8fc;strokeColor=#6c8ebf;" parent="1" target="02XY2JCdMLhreh1r9P0p-26" edge="1">
                    <mxGeometry relative="1" as="geometry">
                        <Array as="points">
                            <mxPoint x="-330" y="530"/>
                            <mxPoint x="-330" y="970"/>
                            <mxPoint x="1310" y="970"/>
                            <mxPoint x="1310" y="484"/>
                        </Array>
                        <mxPoint x="-370" y="530" as="sourcePoint"/>
                    </mxGeometry>
                </mxCell>
                <mxCell id="193" style="edgeStyle=orthogonalEdgeStyle;rounded=0;html=1;entryX=0.005;entryY=0.159;entryDx=0;entryDy=0;endArrow=open;endFill=0;entryPerimeter=0;fillColor=#dae8fc;strokeColor=#6c8ebf;" parent="1" target="110" edge="1">
                    <mxGeometry relative="1" as="geometry">
                        <mxPoint x="-370" y="530" as="sourcePoint"/>
                        <Array as="points">
                            <mxPoint x="-330" y="530"/>
                            <mxPoint x="-330" y="970"/>
                            <mxPoint x="1650" y="970"/>
                            <mxPoint x="1650" y="654"/>
                        </Array>
                    </mxGeometry>
                </mxCell>
                <mxCell id="194" style="edgeStyle=orthogonalEdgeStyle;rounded=0;html=1;entryX=-0.008;entryY=0.108;entryDx=0;entryDy=0;entryPerimeter=0;endArrow=open;endFill=0;fillColor=#dae8fc;strokeColor=#6c8ebf;" parent="1" target="02XY2JCdMLhreh1r9P0p-1" edge="1">
                    <mxGeometry relative="1" as="geometry">
                        <mxPoint x="-370" y="530" as="sourcePoint"/>
                        <Array as="points">
                            <mxPoint x="-330" y="530"/>
                            <mxPoint x="-330" y="970"/>
                            <mxPoint x="1970" y="970"/>
                            <mxPoint x="1970" y="735"/>
                        </Array>
                    </mxGeometry>
                </mxCell>
                <mxCell id="196" style="edgeStyle=orthogonalEdgeStyle;rounded=0;html=1;entryX=1.001;entryY=0.17;entryDx=0;entryDy=0;endArrow=open;endFill=0;entryPerimeter=0;exitX=1;exitY=0.5;exitDx=0;exitDy=0;fillColor=#ffe6cc;strokeColor=#d79b00;" parent="1" source="198" target="102" edge="1">
                    <mxGeometry relative="1" as="geometry">
                        <Array as="points">
                            <mxPoint x="-310" y="509"/>
                            <mxPoint x="-310" y="950"/>
                            <mxPoint x="2870" y="950"/>
                            <mxPoint x="2870" y="735"/>
                        </Array>
                    </mxGeometry>
                </mxCell>
                <mxCell id="197" value="ApplicationContainerFactory" style="swimlane;fontStyle=1;align=center;verticalAlign=top;childLayout=stackLayout;horizontal=1;startSize=26;horizontalStack=0;resizeParent=1;resizeParentMax=0;resizeLast=0;collapsible=1;marginBottom=0;whiteSpace=wrap;html=1;fillColor=#ffe6cc;strokeColor=#d79b00;" parent="1" vertex="1">
                    <mxGeometry x="-560" y="470" width="190" height="86" as="geometry">
                        <mxRectangle x="140" y="360" width="90" height="30" as="alternateBounds"/>
                    </mxGeometry>
                </mxCell>
                <mxCell id="198" value="..." style="text;strokeColor=none;fillColor=none;align=left;verticalAlign=top;spacingLeft=4;spacingRight=4;overflow=hidden;rotatable=0;points=[[0,0.5],[1,0.5]];portConstraint=eastwest;whiteSpace=wrap;html=1;" parent="197" vertex="1">
                    <mxGeometry y="26" width="190" height="26" as="geometry"/>
                </mxCell>
                <mxCell id="199" value="" style="line;strokeWidth=1;fillColor=none;align=left;verticalAlign=middle;spacingTop=-1;spacingLeft=3;spacingRight=3;rotatable=0;labelPosition=right;points=[];portConstraint=eastwest;strokeColor=inherit;" parent="197" vertex="1">
                    <mxGeometry y="52" width="190" height="8" as="geometry"/>
                </mxCell>
                <mxCell id="200" value="+ make(): ApplicationContainer" style="text;strokeColor=none;fillColor=none;align=left;verticalAlign=top;spacingLeft=4;spacingRight=4;overflow=hidden;rotatable=0;points=[[0,0.5],[1,0.5]];portConstraint=eastwest;whiteSpace=wrap;html=1;" parent="197" vertex="1">
                    <mxGeometry y="60" width="190" height="26" as="geometry"/>
                </mxCell>
                <mxCell id="201" value="" style="endArrow=none;dashed=1;html=1;dashPattern=1 3;strokeWidth=2;rounded=0;fillColor=#f5f5f5;strokeColor=#666666;" parent="1" edge="1">
                    <mxGeometry width="50" height="50" relative="1" as="geometry">
                        <mxPoint x="20" y="1000" as="sourcePoint"/>
                        <mxPoint x="20" y="130" as="targetPoint"/>
                    </mxGeometry>
                </mxCell>
                <mxCell id="202" style="edgeStyle=orthogonalEdgeStyle;html=1;rounded=0;endArrow=open;endFill=0;entryX=0;entryY=0.5;entryDx=0;entryDy=0;fillColor=#ffe6cc;strokeColor=#d79b00;" parent="1" target="30" edge="1">
                    <mxGeometry relative="1" as="geometry">
                        <mxPoint x="-240" y="509" as="targetPoint"/>
                        <Array as="points">
                            <mxPoint x="-270" y="509"/>
                            <mxPoint x="-270" y="509"/>
                        </Array>
                        <mxPoint x="-370" y="509" as="sourcePoint"/>
                    </mxGeometry>
                </mxCell>
                <mxCell id="203" value="Platform / Dependency Injection" style="text;html=1;align=center;verticalAlign=middle;whiteSpace=wrap;rounded=0;fontSize=14;" parent="1" vertex="1">
                    <mxGeometry x="-400" y="110" width="210" height="50" as="geometry"/>
                </mxCell>
                <mxCell id="204" value="" style="endArrow=none;dashed=1;html=1;dashPattern=1 3;strokeWidth=2;rounded=0;fillColor=#f5f5f5;strokeColor=#666666;" parent="1" edge="1">
                    <mxGeometry width="50" height="50" relative="1" as="geometry">
                        <mxPoint x="-620" y="1000" as="sourcePoint"/>
                        <mxPoint x="-620" y="130" as="targetPoint"/>
                    </mxGeometry>
                </mxCell>
                <mxCell id="205" value="Application" style="swimlane;fontStyle=1;align=center;verticalAlign=top;childLayout=stackLayout;horizontal=1;startSize=26;horizontalStack=0;resizeParent=1;resizeParentMax=0;resizeLast=0;collapsible=1;marginBottom=0;whiteSpace=wrap;html=1;fillColor=#ffe6cc;strokeColor=#d79b00;" parent="1" vertex="1">
                    <mxGeometry x="-910" y="280" width="190" height="86" as="geometry">
                        <mxRectangle x="140" y="360" width="90" height="30" as="alternateBounds"/>
                    </mxGeometry>
                </mxCell>
                <mxCell id="206" value="- container: ApplicationContainer" style="text;strokeColor=none;fillColor=none;align=left;verticalAlign=top;spacingLeft=4;spacingRight=4;overflow=hidden;rotatable=0;points=[[0,0.5],[1,0.5]];portConstraint=eastwest;whiteSpace=wrap;html=1;" parent="205" vertex="1">
                    <mxGeometry y="26" width="190" height="26" as="geometry"/>
                </mxCell>
                <mxCell id="207" value="" style="line;strokeWidth=1;fillColor=none;align=left;verticalAlign=middle;spacingTop=-1;spacingLeft=3;spacingRight=3;rotatable=0;labelPosition=right;points=[];portConstraint=eastwest;strokeColor=inherit;" parent="205" vertex="1">
                    <mxGeometry y="52" width="190" height="8" as="geometry"/>
                </mxCell>
                <mxCell id="208" value="+ main()" style="text;strokeColor=none;fillColor=none;align=left;verticalAlign=top;spacingLeft=4;spacingRight=4;overflow=hidden;rotatable=0;points=[[0,0.5],[1,0.5]];portConstraint=eastwest;whiteSpace=wrap;html=1;" parent="205" vertex="1">
                    <mxGeometry y="60" width="190" height="26" as="geometry"/>
                </mxCell>
                <mxCell id="209" style="edgeStyle=orthogonalEdgeStyle;rounded=0;html=1;entryX=0.002;entryY=0.195;entryDx=0;entryDy=0;endArrow=open;endFill=0;entryPerimeter=0;exitX=1;exitY=0.5;exitDx=0;exitDy=0;fillColor=#ffe6cc;strokeColor=#d79b00;" parent="1" source="206" target="197" edge="1">
                    <mxGeometry relative="1" as="geometry">
                        <Array as="points">
                            <mxPoint x="-670" y="319"/>
                            <mxPoint x="-670" y="487"/>
                        </Array>
                    </mxGeometry>
                </mxCell>
                <mxCell id="210" style="edgeStyle=orthogonalEdgeStyle;rounded=0;html=1;entryX=-0.001;entryY=0.168;entryDx=0;entryDy=0;entryPerimeter=0;endArrow=open;endFill=0;exitX=1.002;exitY=0.16;exitDx=0;exitDy=0;exitPerimeter=0;fillColor=#ffe6cc;strokeColor=#d79b00;" parent="1" source="205" target="02XY2JCdMLhreh1r9P0p-44" edge="1">
                    <mxGeometry relative="1" as="geometry">
                        <Array as="points"/>
                    </mxGeometry>
                </mxCell>
                <mxCell id="211" value="Platform" style="text;html=1;align=center;verticalAlign=middle;whiteSpace=wrap;rounded=0;fontSize=14;" parent="1" vertex="1">
                    <mxGeometry x="-850" y="120" width="60" height="30" as="geometry"/>
                </mxCell>
                <mxCell id="214" style="edgeStyle=orthogonalEdgeStyle;rounded=0;html=1;endArrow=open;endFill=0;fillColor=#ffe6cc;strokeColor=#d79b00;" parent="1" source="208" edge="1">
                    <mxGeometry relative="1" as="geometry">
                        <mxPoint x="-810" y="1001" as="targetPoint"/>
                        <Array as="points">
                            <mxPoint x="-810" y="1001"/>
                        </Array>
                    </mxGeometry>
                </mxCell>
                <mxCell id="215" style="edgeStyle=orthogonalEdgeStyle;rounded=0;html=1;endArrow=open;endFill=0;fillColor=#ffe6cc;strokeColor=#d79b00;" parent="1" source="200" edge="1">
                    <mxGeometry relative="1" as="geometry">
                        <mxPoint x="-460" y="1000" as="targetPoint"/>
                        <Array as="points">
                            <mxPoint x="-460" y="992"/>
                        </Array>
                    </mxGeometry>
                </mxCell>
                <mxCell id="217" value="External (Host System, Framework and Libraries)" style="text;html=1;align=center;verticalAlign=middle;whiteSpace=wrap;rounded=0;fontSize=14;" parent="1" vertex="1">
                    <mxGeometry x="1030" y="1034" width="470" height="38" as="geometry"/>
                </mxCell>
                <mxCell id="218" style="edgeStyle=none;html=1;exitX=0.5;exitY=1;exitDx=0;exitDy=0;endArrow=open;endFill=0;fillColor=#ffe6cc;strokeColor=#d79b00;" parent="1" source="02XY2JCdMLhreh1r9P0p-22" edge="1">
                    <mxGeometry relative="1" as="geometry">
                        <mxPoint x="530" y="1000" as="targetPoint"/>
                        <mxPoint x="530" y="720" as="sourcePoint"/>
                    </mxGeometry>
                </mxCell>
                <mxCell id="219" style="edgeStyle=none;html=1;endArrow=open;endFill=0;fillColor=#ffe6cc;strokeColor=#d79b00;" parent="1" source="79" edge="1">
                    <mxGeometry relative="1" as="geometry">
                        <mxPoint x="820" y="1000" as="targetPoint"/>
                    </mxGeometry>
                </mxCell>
                <mxCell id="220" value="Stopwatch Class Diagram" style="text;html=1;strokeColor=none;fillColor=none;align=center;verticalAlign=middle;whiteSpace=wrap;rounded=0;fontSize=20;" parent="1" vertex="1">
                    <mxGeometry x="1060" y="-17" width="310" height="17" as="geometry"/>
                </mxCell>
            </root>
        </mxGraphModel>
    </diagram>
</mxfile>